<svg xmlns="http://www.w3.org/2000/svg" style="height: 400px; width: 800px;">
    <defs>
    <marker class="marker" id="marker-small" viewBox="0 -5 10 10" refX="0" refY="0" markerWidth="6" markerHeight="6" orient="auto" fill="black">
        <path d="M0,-5L10,0L0,5"></path>
    </marker>
    <marker class="marker" id="marker-small-highlighted" viewBox="0 -5 10 10" refX="0" refY="0" markerWidth="6" markerHeight="6" orient="auto" fill="black">
        <path d="M0,-5L10,0L0,5"></path>
    </marker>
    <marker class="marker" id="marker-medium" viewBox="0 -5 10 10" refX="0" refY="0" markerWidth="6" markerHeight="6" orient="auto" fill="black">
        <path d="M0,-5L10,0L0,5"></path>
    </marker>
    <marker class="marker" id="marker-medium-highlighted" viewBox="0 -5 10 10" refX="0" refY="0" markerWidth="6" markerHeight="6" orient="auto" fill="black">
        <path d="M0,-5L10,0L0,5"></path>
    </marker>
    <marker class="marker" id="marker-large" viewBox="0 -5 10 10" refX="0" refY="0" markerWidth="6" markerHeight="6" orient="auto" fill="black">
        <path d="M0,-5L10,0L0,5"></path>
    </marker>
    <marker class="marker" id="marker-large-highlighted" viewBox="0 -5 10 10" refX="0" refY="0" markerWidth="6" markerHeight="6" orient="auto" fill="black">
        <path d="M0,-5L10,0L0,5"></path>
    </marker>
    </defs>
<g id="graph-id-graph-container-zoomable" style="transition-duration: 0s;">
    <g>
        <path class="link" d="M207.58985990180466,200.0000003953331 A0,0 0 0,1 247.09375427161694,199.9999988431494" marker-end="url(#marker-small)" id="Design,Develop" style="stroke-width: 3; stroke: black; opacity: 1; fill: none; cursor: pointer; stroke-dasharray: 0; stroke-dashoffset: 0; stroke-linecap: butt;"></path>
    </g>
    <g>
        <path class="link" d="M372.28977514569056,199.9999985340481 A0,0 0 0,1 409.83278938628087,200.0000002880736" marker-end="url(#marker-small)" id="Develop,QA" style="stroke-width: 3; stroke: black; opacity: 1; fill: none; cursor: pointer; stroke-dasharray: 0; stroke-dashoffset: 0; stroke-linecap: butt;"></path>
    </g>
    <g>
        <path class="link" d="M535.0288102603545,200.000001813587 A0,0 0 0,1 574.6490056075635,200.0000004685379" marker-end="url(#marker-small)" id="QA,Support" style="stroke-width: 3; stroke: black; opacity: 1; fill: none; cursor: pointer; stroke-dasharray: 0; stroke-dashoffset: 0; stroke-linecap: butt;"></path>
    </g>
    <g class="node" cx="153.99184946476785" cy="200.00000250130165" id="Design" transform="translate(153.99184946476785,200.00000250130165)">
        <path cursor="pointer" opacity="1" d="M56.41895835477563,0A56.41895835477563,56.41895835477563,0,1,1,-56.41895835477563,0A56.41895835477563,56.41895835477563,0,1,1,56.41895835477563,0" fill="#C4C4C4" stroke="none" stroke-width="1.5"></path>
        <text dx="0" dy="3.5em" dominant-baseline="hanging" text-anchor="middle" fill="#fff" font-size="26px" font-weight="normal" opacity="1" font-family="Arial, Helvetica, sans-serif">Design</text>
    </g>
    <g class="node" cx="318.69176470865375" cy="199.99999602992636" id="Develop" transform="translate(318.69176470865375,199.99999602992636)">
        <path cursor="pointer" opacity="1" d="M56.41895835477563,0A56.41895835477563,56.41895835477563,0,1,1,-56.41895835477563,0A56.41895835477563,56.41895835477563,0,1,1,56.41895835477563,0" fill="#FBDCDC" stroke="none" stroke-width="1.5"></path>
        <text dx="0" dy="3.5em" dominant-baseline="hanging" text-anchor="middle" fill="#fff" font-size="26px" font-weight="normal" opacity="1" font-family="Arial, Helvetica, sans-serif">Develop</text>
    </g>
    <g class="node" cx="481.4307998233176" cy="200.00000363316298" id="QA" transform="translate(481.4307998233176,200.00000363316298)">
        <path cursor="pointer" opacity="1" d="M56.41895835477563,0A56.41895835477563,56.41895835477563,0,1,1,-56.41895835477563,0A56.41895835477563,56.41895835477563,0,1,1,56.41895835477563,0" fill="#C4C4C4" stroke="none" stroke-width="1.5"></path>
        <text dx="0" dy="3.5em" dominant-baseline="hanging" text-anchor="middle" fill="#fff" font-size="26px" font-weight="normal" opacity="1" font-family="Arial, Helvetica, sans-serif">QA</text>
    </g>
    <g class="node" cx="646.2470160446003" cy="199.99999803788762" id="Support" transform="translate(646.2470160446003,199.99999803788762)">
        <path cursor="pointer" opacity="1" d="M56.41895835477563,0A56.41895835477563,56.41895835477563,0,1,1,-56.41895835477563,0A56.41895835477563,56.41895835477563,0,1,1,56.41895835477563,0" fill="#FBDCDC" stroke="none" stroke-width="1.5"></path>
        <text dx="0" dy="3.5em" dominant-baseline="hanging" text-anchor="middle" fill="#fff" font-size="26px" font-weight="normal" opacity="1" font-family="Arial, Helvetica, sans-serif">Support</text>
    </g>
</g>
</svg>